<?xml version="1.0" encoding="utf-8"?>
<!-- Generator: Adobe Illustrator 16.0.3, SVG Export Plug-In . SVG Version: 6.00 Build 0)  -->
<!DOCTYPE svg PUBLIC "-//W3C//DTD SVG 1.1//EN" "http://www.w3.org/Graphics/SVG/1.1/DTD/svg11.dtd">
<svg version="1.1" id="Warstwa_1" xmlns="http://www.w3.org/2000/svg" xmlns:xlink="http://www.w3.org/1999/xlink" x="0px" y="0px"
	 width="857.143px" height="1000px" viewBox="0 0 857.143 1000" enable-background="new 0 0 857.143 1000" xml:space="preserve">
<path fill="#FFFFFF" d="M453.654,724.906l253.332-253.332c7.067-7.067,10.602-15.438,10.602-25.109
	c0-9.673-3.534-18.042-10.602-25.11l-56.916-56.916c-7.068-7.068-15.438-10.602-25.11-10.602s-18.042,3.533-25.11,10.602
	L428.544,535.743L257.238,364.438c-7.068-7.068-15.438-10.602-25.11-10.602s-18.042,3.533-25.11,10.602l-56.916,56.916
	c-7.068,7.068-10.602,15.438-10.602,25.11c0,9.672,3.534,18.042,10.602,25.109l253.332,253.332
	c7.068,7.068,15.438,10.603,25.11,10.603S446.586,731.974,453.654,724.906L453.654,724.906z M857.088,500.031
	c0,77.748-19.158,149.451-57.474,215.109c-38.316,65.658-90.304,117.645-155.961,155.961
	c-65.658,38.316-137.361,57.474-215.109,57.474s-149.451-19.157-215.109-57.474C147.777,832.785,95.79,780.799,57.474,715.141
	S0,577.78,0,500.031S19.158,350.58,57.474,284.923c38.316-65.658,90.303-117.646,155.961-155.961
	c65.658-38.316,137.361-57.475,215.109-57.475s149.451,19.158,215.109,57.475c65.657,38.315,117.645,90.303,155.961,155.961
	C837.93,350.58,857.088,422.283,857.088,500.031L857.088,500.031z"/>
</svg>
